<?xml version="1.0" standalone="no"?>
<!DOCTYPE svg PUBLIC "-//W3C//DTD SVG 20010904//EN"
 "http://www.w3.org/TR/2001/REC-SVG-20010904/DTD/svg10.dtd">
<svg version="1.0" xmlns="http://www.w3.org/2000/svg"
 width="150.000000pt" height="150.000000pt" viewBox="0 0 150.000000 150.000000"
 preserveAspectRatio="xMidYMid meet">
<metadata>
Created by potrace 1.16, written by Peter Selinger 2001-2019
</metadata>
<g transform="translate(0.000000,150.000000) scale(0.117187,-0.117187)"
fill="#ffffff" stroke="none">
<path d="M16 1264 c-14 -13 -16 -59 -16 -348 0 -383 -4 -366 88 -366 l52 0 0
-275 0 -275 500 0 500 0 0 150 0 150 -30 0 -30 0 0 -125 0 -125 -440 0 -440 0
0 250 0 250 180 0 c167 0 181 1 200 20 19 19 20 33 20 300 l0 280 115 0 115 0
0 -130 0 -130 125 0 125 0 0 -150 0 -150 30 0 30 0 0 168 0 167 -138 138 -137
137 -133 0 c-132 0 -132 0 -132 23 0 13 -8 31 -18 40 -16 15 -51 17 -285 17
-228 0 -268 -2 -281 -16z m529 -349 l0 -310 -245 0 -245 0 -3 313 -2 312 247
-2 248 -3 0 -310z"/>
<path d="M60 1140 l0 -80 240 0 240 0 0 80 0 80 -240 0 -240 0 0 -80z m430 0
l0 -30 -190 0 -190 0 0 30 0 30 190 0 190 0 0 -30z"/>
<path d="M92 1038 c-18 -18 -15 -94 4 -112 9 -9 32 -16 54 -16 48 0 70 21 70
66 0 59 -14 74 -68 74 -27 0 -53 -5 -60 -12z"/>
<path d="M242 1038 c-18 -18 -15 -94 4 -112 22 -22 87 -21 107 2 21 23 22 86
1 106 -18 19 -94 22 -112 4z"/>
<path d="M392 1038 c-7 -7 -12 -33 -12 -60 0 -37 4 -50 19 -58 31 -16 86 -12
104 8 21 23 22 86 1 106 -18 19 -94 22 -112 4z"/>
<path d="M92 888 c-18 -18 -15 -94 4 -112 22 -22 87 -21 107 2 19 21 22 73 7
103 -8 15 -21 19 -58 19 -27 0 -53 -5 -60 -12z"/>
<path d="M242 888 c-18 -18 -15 -94 4 -112 22 -22 87 -21 107 2 19 21 22 73 7
103 -8 15 -21 19 -58 19 -27 0 -53 -5 -60 -12z"/>
<path d="M392 888 c-18 -18 -15 -94 4 -112 20 -20 73 -20 102 0 27 18 31 84 6
108 -18 19 -94 22 -112 4z"/>
<path d="M92 738 c-18 -18 -15 -94 4 -112 20 -20 73 -20 102 0 16 11 22 25 22
50 0 59 -14 74 -68 74 -27 0 -53 -5 -60 -12z"/>
<path d="M242 738 c-18 -18 -15 -94 4 -112 20 -20 73 -20 102 0 16 11 22 25
22 50 0 59 -14 74 -68 74 -27 0 -53 -5 -60 -12z"/>
<path d="M392 738 c-18 -18 -15 -94 4 -112 22 -23 80 -20 104 4 22 22 26 70
10 101 -8 15 -21 19 -58 19 -27 0 -53 -5 -60 -12z"/>
<path d="M760 810 l0 -30 135 0 135 0 0 30 0 30 -135 0 -135 0 0 -30z"/>
<path d="M760 640 l0 -30 135 0 135 0 0 30 0 30 -135 0 -135 0 0 -30z"/>
<path d="M988 423 c-166 -167 -201 -207 -223 -257 -42 -95 -24 -106 83 -52 55
28 99 67 250 218 167 169 182 187 182 220 0 42 -25 68 -66 68 -25 0 -60 -31
-226 -197z"/>
<path d="M421 505 c-94 -29 -162 -139 -147 -240 16 -102 113 -185 216 -185 71
0 148 43 185 104 26 42 30 59 30 115 -1 103 -55 178 -149 206 -59 18 -77 18
-135 0z m145 -61 c98 -47 118 -182 40 -260 -104 -104 -276 -32 -276 116 0 118
127 196 236 144z"/>
<path d="M433 396 c-33 -31 -39 -49 -27 -81 8 -20 56 -45 88 -45 14 0 28 -4
31 -10 9 -14 -44 -25 -58 -11 -16 16 -67 14 -67 -2 0 -19 68 -77 91 -77 17 0
39 14 75 48 20 19 17 59 -4 80 -11 11 -38 22 -60 26 -23 3 -42 10 -42 15 0 15
41 24 53 12 16 -16 67 -14 67 2 0 21 -70 77 -93 76 -12 -1 -37 -15 -54 -33z"/>
</g>
</svg>
