<?xml version="1.0" standalone="no"?>
<!DOCTYPE svg PUBLIC "-//W3C//DTD SVG 20010904//EN"
 "http://www.w3.org/TR/2001/REC-SVG-20010904/DTD/svg10.dtd">
<svg version="1.0" xmlns="http://www.w3.org/2000/svg"
 width="150.000000pt" height="150.000000pt" viewBox="0 0 150.000000 150.000000"
 preserveAspectRatio="xMidYMid meet">
<metadata>
Created by potrace 1.16, written by Peter Selinger 2001-2019
</metadata>
<g transform="translate(0.000000,150.000000) scale(0.117187,-0.117187)"
fill="#ffffff" stroke="none">
<path d="M115 1266 c-43 -19 -94 -74 -106 -116 -6 -22 -9 -211 -7 -531 l3
-495 24 -36 c13 -19 40 -46 59 -59 34 -23 42 -24 246 -27 118 -1 217 2 225 7
15 10 20 66 7 79 -4 4 -94 9 -199 12 -205 5 -223 10 -249 59 -19 35 -19 927 0
962 28 53 34 54 364 57 345 3 378 -1 408 -51 18 -29 20 -51 20 -243 0 -192 2
-212 18 -227 24 -22 55 -21 75 1 24 27 25 443 2 500 -20 47 -50 79 -97 103
-35 18 -63 19 -400 19 -277 -1 -370 -4 -393 -14z"/>
<path d="M426 1068 c-17 -18 -46 -51 -63 -72 l-32 -39 -31 27 c-36 30 -62 33
-84 10 -29 -28 -19 -66 27 -111 81 -78 113 -71 213 49 79 95 90 126 52 152
-32 23 -46 20 -82 -16z"/>
<path d="M576 938 c-21 -30 -20 -44 4 -68 17 -17 33 -20 108 -20 98 0 132 14
132 55 0 45 -23 55 -130 55 -91 0 -100 -2 -114 -22z"/>
<path d="M394 723 c-32 -38 -60 -70 -61 -72 -2 -3 -16 8 -31 22 -47 45 -102
30 -102 -27 0 -27 9 -42 45 -75 36 -33 52 -41 84 -41 47 0 61 12 141 110 63
78 72 106 42 133 -34 31 -57 20 -118 -50z"/>
<path d="M581 641 c-8 -5 -14 -24 -14 -41 0 -17 6 -36 14 -41 8 -5 60 -9 117
-9 100 0 103 1 114 25 8 19 8 31 0 50 -11 24 -14 25 -114 25 -57 0 -109 -4
-117 -9z"/>
<path d="M1034 571 c-21 -16 -98 -89 -170 -162 l-130 -134 -34 -113 c-51 -174
-38 -186 153 -135 l102 27 134 131 c175 171 191 192 191 264 0 97 -54 151
-151 151 -46 0 -63 -5 -95 -29z m19 -209 l27 -28 -93 -91 c-73 -72 -101 -93
-135 -101 -38 -9 -42 -8 -38 6 2 10 7 28 11 42 8 27 172 200 190 200 6 0 23
-13 38 -28z"/>
<path d="M426 458 c-17 -18 -46 -51 -63 -72 l-32 -39 -31 27 c-36 30 -62 33
-84 10 -29 -28 -19 -66 27 -111 81 -78 113 -71 213 49 79 95 90 126 52 152
-32 23 -46 20 -82 -16z"/>
</g>
</svg>
