<?xml version="1.0" encoding="utf-8"?>
<!-- Generator: Adobe Illustrator 19.0.1, SVG Export Plug-In . SVG Version: 6.00 Build 0)  -->
<svg version="1.1" xmlns="http://www.w3.org/2000/svg" xmlns:xlink="http://www.w3.org/1999/xlink" x="0px" y="0px"
	 viewBox="0 0 153.9 144.2" style="enable-background:new 0 0 153.9 144.2;" xml:space="preserve">
<style type="text/css">
	.st0{fill:none;stroke:#E1E4F6;stroke-width:2;stroke-miterlimit:10;}
	.st1{fill:none;stroke:#4400FF;stroke-width:2;stroke-miterlimit:10;}
	.st2{fill:#B756BC;}
	.st3{fill:none;stroke:#B756BC;stroke-width:2;stroke-miterlimit:10;}
	.st4{fill:none;stroke:#4400FF;stroke-width:2;stroke-linecap:round;stroke-miterlimit:10;}
	.st5{fill:#4400FF;}
	.st6{fill:none;stroke:#B756BC;stroke-width:2;stroke-linecap:round;stroke-miterlimit:10;}
	.st7{fill:none;stroke:#B756BC;stroke-width:2.5;stroke-miterlimit:10;}
</style>
<g id="Layer_2">
</g>
<g id="Layer_1">
</g>
<g id="Layer_3">
</g>
<g id="Layer_4">
	<g>
		<circle class="st7" cx="76.5" cy="87.8" r="28.5"/>
		<polygon class="st3" points="70.1,69.8 83,69.8 83,81.6 94.1,81.6 94.1,94.4 83.1,94.4 83.1,106.5 70.1,106.5 70.1,94.4 
			58.6,94.4 58.6,81.6 70.1,81.6 		"/>
		<path class="st1" d="M152.9,80c0,0,0-44.6,0-53.2H1v116.4h151.9V80z"/>
		<line class="st1" x1="6.5" y1="39.3" x2="146.6" y2="39.3"/>
		<polyline class="st1" points="102.8,26.8 102.8,13.9 105,13.9 105,1 47.5,1 47.5,13.9 50.2,13.9 50.2,26.8 		"/>
		<polyline class="st1" points="56.2,26.8 56.2,13.9 96.8,13.9 96.8,26.8 		"/>
	</g>
</g>
</svg>
