<?xml version="1.0" encoding="utf-8"?>
<!-- Generator: Adobe Illustrator 19.0.1, SVG Export Plug-In . SVG Version: 6.00 Build 0)  -->
<svg version="1.1" xmlns="http://www.w3.org/2000/svg" xmlns:xlink="http://www.w3.org/1999/xlink" x="0px" y="0px"
	 viewBox="0 0 160.9 106.1" style="enable-background:new 0 0 160.9 106.1;" xml:space="preserve">
<style type="text/css">
	.st0{fill:none;stroke:#E1E4F6;stroke-width:2;stroke-miterlimit:10;}
	.st1{fill:none;stroke:#4400FF;stroke-width:2;stroke-miterlimit:10;}
	.st2{fill:#B756BC;}
	.st3{fill:none;stroke:#B756BC;stroke-width:2;stroke-miterlimit:10;}
	.st4{fill:none;stroke:#4400FF;stroke-width:2;stroke-linecap:round;stroke-miterlimit:10;}
	.st5{fill:#4400FF;}
	.st6{fill:none;stroke:#B756BC;stroke-width:2;stroke-linecap:round;stroke-miterlimit:10;}
	.st7{fill:none;stroke:#B756BC;stroke-width:2.5;stroke-miterlimit:10;}
</style>
<g id="Layer_2">
</g>
<g id="Layer_1">
</g>
<g id="Layer_3">
	<g>
		<polygon class="st2" points="44.7,32.4 44.7,42.3 54.1,42.3 54.1,52 63.6,52 63.6,42.3 72.3,42.3 72.3,32.4 63.6,32.4 63.6,23.7 
			54.1,23.7 54.1,32.4 		"/>
		<path class="st1" d="M104.5,63.8H7c-1.4,0-2.6-1.2-2.6-2.6V16.5C4.4,15.1,5.6,14,7,14h97.6c1.4,0,2.6,1.2,2.6,2.6v44.7
			C107.1,62.6,105.9,63.8,104.5,63.8z"/>
		<path class="st1" d="M11,96.7H6.2c-2.9,0-5.2-2.3-5.2-5.2l0,0c0-2.9,2.3-5.2,5.2-5.2H11c2.9,0,5.2,2.3,5.2,5.2l0,0
			C16.2,94.3,13.9,96.7,11,96.7z"/>
		<path class="st1" d="M156,94.1h-2.8c-2.2,0-3.9-1.8-3.9-3.9l0,0c0-2.2,1.8-3.9,3.9-3.9h2.8c2.2,0,3.9,1.8,3.9,3.9l0,0
			C159.9,92.4,158.2,94.1,156,94.1z"/>
		<path class="st1" d="M107.4,19.9h25l8.7,25.6c1.1,3.3,3.1,6.2,5.7,8.4l9.5,8.1v24.2"/>
		<path class="st1" d="M143,50h-21c-5.9-11.1-7.9-25.6-7.9-30.1s0-8.7,0-8.7h12.5v8.7"/>
		<circle class="st1" cx="37" cy="92.2" r="12.9"/>
		<circle class="st1" cx="37" cy="92.2" r="6.5"/>
		<circle class="st1" cx="128.4" cy="92.2" r="12.9"/>
		<circle class="st1" cx="128.4" cy="92.2" r="6.5"/>
		<line class="st1" x1="6" y1="61.2" x2="6" y2="85.7"/>
		<line class="st1" x1="7.2" y1="74.6" x2="155.2" y2="74.6"/>
		<path class="st1" d="M107.1,58.1v30.4c0,2.6-2.1,4.6-4.6,4.6L50.1,92"/>
		<line class="st1" x1="23.7" y1="93.2" x2="16.9" y2="93.2"/>
		<line class="st1" x1="115.8" y1="88.9" x2="107.8" y2="88.9"/>
		<line class="st1" x1="149.4" y1="91.5" x2="141.4" y2="91.5"/>
		<line class="st1" x1="107.8" y1="68.4" x2="155.2" y2="68.4"/>
		<line class="st6" x1="123.4" y1="6.4" x2="129.4" y2="1"/>
		<line class="st6" x1="111.8" y1="1" x2="117.8" y2="6.4"/>
	</g>
</g>
<g id="Layer_4">
</g>
</svg>
