<?xml version="1.0" encoding="utf-8"?>
<!-- Generator: Adobe Illustrator 19.0.1, SVG Export Plug-In . SVG Version: 6.00 Build 0)  -->
<svg version="1.1" xmlns="http://www.w3.org/2000/svg" xmlns:xlink="http://www.w3.org/1999/xlink" x="0px" y="0px"
	 viewBox="0 0 172.4 157.3" style="enable-background:new 0 0 172.4 157.3;" xml:space="preserve">
<style type="text/css">
	.st0{fill:none;stroke:#E1E4F6;stroke-width:2;stroke-miterlimit:10;}
	.st1{fill:none;stroke:#4400FF;stroke-width:2;stroke-miterlimit:10;}
	.st2{fill:#B756BC;}
	.st3{fill:none;stroke:#B756BC;stroke-width:2;stroke-miterlimit:10;}
	.st4{fill:none;stroke:#4400FF;stroke-width:2;stroke-linecap:round;stroke-miterlimit:10;}
	.st5{fill:#4400FF;}
	.st6{fill:none;stroke:#B756BC;stroke-width:2;stroke-linecap:round;stroke-miterlimit:10;}
	.st7{fill:none;stroke:#B756BC;stroke-width:2.5;stroke-miterlimit:10;}
</style>
<g id="Layer_2">
</g>
<g id="Layer_1">
	<g>
		<path class="st1" d="M81,46.6h-4.3c-3.3,0-6-2.7-6-6v0c0-3.3,2.7-6,6-6H81c3.3,0,6,2.7,6,6v0C87,43.9,84.3,46.6,81,46.6z"/>
		<path class="st1" d="M104.1,46.6h-4.3c-3.3,0-6-2.7-6-6v0c0-3.3,2.7-6,6-6h4.3c3.3,0,6,2.7,6,6v0
			C110.1,43.9,107.4,46.6,104.1,46.6z"/>
		<path class="st1" d="M90.5,53.2L90.5,53.2c-1.3,0-2.3-1-2.3-2.3v-3.7c0-1.3,1-2.3,2.3-2.3h0c1.3,0,2.3,1,2.3,2.3v3.7
			C92.8,52.2,91.8,53.2,90.5,53.2z"/>
		<path class="st4" d="M85.2,57L85.2,57c3.5,3.2,7.3,3.2,10.5,0v0"/>
		<circle class="st5" cx="79" cy="40.8" r="1.1"/>
		<circle class="st5" cx="102.2" cy="40.8" r="1.1"/>
		<path class="st1" d="M83.7,65v7.5c0,0,0.7,2.2,1.1,2.9C87,79,94.3,79,96.3,75.1c0.3-0.7,0.9-2.8,0.9-2.8V65"/>
		<path class="st1" d="M97.8,71.5l15.8,5.2c0,0,5,2.4,5.5,5.9s0,40.8,0,40.8"/>
		<path class="st1" d="M83.1,71.5l-14.5,5.2c0,0-4.6,2.4-5,5.9c-0.4,3.5,0,40.1,0,40.1"/>
		<line class="st1" x1="94.6" y1="77.1" x2="94.6" y2="122.7"/>
		<line class="st1" x1="86.9" y1="77.1" x2="86.9" y2="122.7"/>
		<path class="st1" d="M101.1,13.2c0,0-1.4,7.9-6,13.1c-6.3,7.1-22.6,5-28.8,6.2c-0.5-6.3-0.7-9.7,0.6-15.5
			C68.8,8.5,78.2,0.7,90.6,1c9.2,0.2,17.2-0.5,22.4,9.4c6.6,12.5-4.9,18.8-4.9,18.8s1.1-5.1-2-6.8C104.3,21.5,102.8,21.1,101.1,13.2
			z"/>
		<path class="st1" d="M83.1,69.3c0,0-8.1,1-8.2,10c-0.1,7.3-0.1,10.3-0.1,10.3"/>
		<path class="st1" d="M105.5,96.6c0,0,0-10.9-0.1-18.2c-0.1-9-8.2-10-8.2-10"/>
		<circle class="st2" cx="74.8" cy="93.9" r="3.7"/>
		<path class="st1" d="M101.3,109.4h-1.2l-1.3-3.4c0-0.5,0.9-9.4,6.7-9.4s6.7,8.9,6.7,9.4l-1.1,3.4h-1.4"/>
		<polyline class="st1" points="110.4,57.6 143.5,57.6 143.5,122.7 35.5,122.7 35.5,57.6 70.8,57.6 		"/>
		<path class="st1" d="M67.6,52.2l-18.5,0.1H32.3l0,0c-1.3,0.4-2.2,1.4-2.5,2.7l0,0.1v34.7v34.7l0,0c0,1.4,0.9,3.6,2.5,4.1v0h56.4
			h56.4l0.3,0c1.7-0.2,3.6-1.4,3.7-2.9l0,0V90.4V55.1v0c-0.2-1.5-1.4-2.7-2.9-2.9l0,0h-16.6h-16.6"/>
		<path class="st1" d="M79.4,128.7l-1.8,18.6H53.6c-2.7,0-4.9,2.2-4.9,4.9v4.1h81.3V152c0-2.7-2.2-4.9-4.9-4.9h-23.4l-2.1-18.5"/>
		<line class="st1" x1="78.1" y1="147.4" x2="101.3" y2="147.4"/>
		<line class="st1" x1="130.1" y1="152.4" x2="49.2" y2="152.4"/>
		<path class="st1" d="M66.7,33.6c0,3.9,0,1.4,0,13.3s11.9,18.9,23.8,18.9s23.9-7.1,23.9-18.9s0-11.9,0-23.9"/>
		<path class="st1" d="M66.7,37.6l-0.8,0.1c-4.4,0.8-6.2,7.7,0.1,10.7l0.7,0"/>
		<path class="st1" d="M114.5,38.3l0.8,0.1c4.4,0.8,6.2,7.7-0.1,10.7l-0.7,0"/>
		<line class="st1" x1="130.1" y1="154.5" x2="172.4" y2="154.5"/>
		<line class="st1" x1="0" y1="154.5" x2="49.2" y2="154.5"/>
		<line class="st1" x1="86.9" y1="38.7" x2="93.3" y2="38.7"/>
		<line class="st1" x1="110.1" y1="39.8" x2="113.9" y2="36.1"/>
		<line class="st1" x1="70.6" y1="39.8" x2="66.7" y2="36.9"/>
		<path class="st2" d="M155.4,15h-19.9c-6,0-10.9,4.9-10.9,10.9s4.9,10.9,10.9,10.9h0.2c0,1.2-0.4,2.4-1.2,3.5
			c-0.2,0.3-1.1,1.6-1.1,1.6c2.5-0.2,3.9-1.5,4.7-2.6c0.5-0.8,0.8-1.6,0.9-2.5h16.3c6,0,10.9-4.9,10.9-10.9S161.4,15,155.4,15z"/>
	</g>
</g>
<g id="Layer_3">
</g>
<g id="Layer_4">
</g>
</svg>
