<?xml version="1.0" encoding="utf-8"?>
<!-- Generator: Adobe Illustrator 19.0.1, SVG Export Plug-In . SVG Version: 6.00 Build 0)  -->
<svg version="1.1" xmlns="http://www.w3.org/2000/svg" xmlns:xlink="http://www.w3.org/1999/xlink" x="0px" y="0px"
	 viewBox="0 0 155.9 118.1" style="enable-background:new 0 0 155.9 118.1;" xml:space="preserve">
<style type="text/css">
	.st0{fill:none;stroke:#E1E4F6;stroke-width:2;stroke-miterlimit:10;}
	.st1{fill:none;stroke:#4400FF;stroke-width:2;stroke-miterlimit:10;}
	.st2{fill:#B756BC;}
	.st3{fill:none;stroke:#B756BC;stroke-width:2;stroke-miterlimit:10;}
	.st4{fill:none;stroke:#4400FF;stroke-width:2;stroke-linecap:round;stroke-miterlimit:10;}
	.st5{fill:#4400FF;}
	.st6{fill:none;stroke:#B756BC;stroke-width:2;stroke-linecap:round;stroke-miterlimit:10;}
	.st7{fill:none;stroke:#B756BC;stroke-width:2.5;stroke-miterlimit:10;}
</style>
<g id="Layer_2">
	<g>
		<path class="st1" d="M154.9,28.7v73.8c0,5.4-4.4,9.9-9.9,9.9H10.9c-5.4,0-9.9-4.4-9.9-9.9V23c0-5.4,4.4-9.9,9.9-9.9h128.6
			C147.9,13.2,154.9,20.1,154.9,28.7z"/>
		<path class="st1" d="M13.9,13.1c0.2,0.7,0.2,1.4,0.2,2.2c0.1,6.1-4.9,11-10.9,11c-0.6,0-1.2-0.1-1.8-0.2"/>
		<path class="st1" d="M142.4,13.1c-0.2,0.7-0.2,1.4-0.2,2.2c0,6.1,4.9,11,11,11c0.6,0,1.2-0.1,1.8-0.2"/>
		<path class="st1" d="M13.9,112.3c0.2-0.7,0.2-1.4,0.2-2.2c0-6.1-4.9-11-11-11c-0.6,0-1.2,0.1-1.8,0.2"/>
		<path class="st1" d="M142.4,112.3c-0.2-0.7-0.2-1.4-0.2-2.2c0-6.1,4.9-11,11-11c0.6,0,1.2,0.1,1.8,0.2"/>
		<path class="st1" d="M98.4,3.2v9.9h-5.2V7.3c0-1.1-0.9-2-2-2H64.6c-1.1,0-2,0.9-2,2v5.9h-5.2V3.2c0-1.2,1-2.2,2.2-2.2h36.6
			C97.4,1.1,98.4,2,98.4,3.2z"/>
		<line class="st1" x1="35.2" y1="72.4" x2="35.2" y2="112.3"/>
		<line class="st1" x1="35.2" y1="13.2" x2="35.2" y2="57.2"/>
		<line class="st1" x1="42.1" y1="72.4" x2="42.1" y2="112.3"/>
		<line class="st1" x1="42.1" y1="13.2" x2="42.1" y2="57.2"/>
		<path class="st1" d="M41.3,72.4H36c-2.1,0-3.9-1.8-3.9-3.9v-7.4c0-2.1,1.8-3.9,3.9-3.9h5.3c2.1,0,3.9,1.8,3.9,3.9v7.4
			C45.2,70.7,43.5,72.4,41.3,72.4z"/>
		<line class="st1" x1="38.7" y1="61.2" x2="38.7" y2="57.2"/>
		<line class="st1" x1="112.5" y1="72.4" x2="112.5" y2="112.3"/>
		<line class="st1" x1="112.5" y1="13.2" x2="112.5" y2="57.2"/>
		<line class="st1" x1="119.4" y1="72.4" x2="119.4" y2="112.3"/>
		<line class="st1" x1="119.4" y1="13.2" x2="119.4" y2="57.2"/>
		<path class="st1" d="M118.6,72.4h-5.3c-2.1,0-3.9-1.8-3.9-3.9v-7.4c0-2.1,1.8-3.9,3.9-3.9h5.3c2.1,0,3.9,1.8,3.9,3.9v7.4
			C122.4,70.7,120.7,72.4,118.6,72.4z"/>
		<line class="st1" x1="115.9" y1="61.2" x2="115.9" y2="57.2"/>
		<path class="st1" d="M47.2,112.1v2c0,1.7-1.3,2.9-2.9,2.9H28.5c-1.7,0-2.9-1.3-2.9-2.9v-2"/>
		<path class="st1" d="M107.7,112.1v2c0,1.7,1.3,2.9,2.9,2.9h15.8c1.7,0,2.9-1.3,2.9-2.9v-2"/>
		<line class="st1" x1="4.9" y1="46.1" x2="4.9" y2="57.2"/>
		<line class="st1" x1="4.9" y1="61.7" x2="4.9" y2="62.7"/>
		<line class="st1" x1="67.7" y1="109" x2="78.9" y2="109"/>
		<line class="st1" x1="83.4" y1="109" x2="84.4" y2="109"/>
		
			<rect x="14.3" y="30.4" transform="matrix(-0.9444 0.3289 -0.3289 -0.9444 47.1507 66.4772)" class="st2" width="7.4" height="13.7"/>
		
			<rect x="133.7" y="34.5" transform="matrix(-0.9863 0.1649 -0.1649 -0.9863 284.6283 52.0317)" class="st2" width="12.9" height="6.6"/>
		
			<rect x="135.1" y="76.7" transform="matrix(-0.995 -0.1003 0.1003 -0.995 271.2877 179.0864)" class="st2" width="10.1" height="12"/>
		<g>
			<path class="st2" d="M74.4,56.5v-1.9l5.7-1v13.3l2.6,0.3v1.9h-8.3v-1.9l2.6-0.3V56.5H74.4z"/>
		</g>
		<circle class="st3" cx="77.9" cy="61.9" r="15.8"/>
	</g>
</g>
<g id="Layer_1">
</g>
<g id="Layer_3">
</g>
<g id="Layer_4">
</g>
</svg>
