<?xml version="1.0" encoding="utf-8"?>
<!-- Generator: Adobe Illustrator 23.0.3, SVG Export Plug-In . SVG Version: 6.00 Build 0)  -->
<svg version="1.1" id="Слой_1" xmlns="http://www.w3.org/2000/svg" xmlns:xlink="http://www.w3.org/1999/xlink" x="0px" y="0px"
	 viewBox="0 0 122.8 107.9" style="enable-background:new 0 0 122.8 107.9;" xml:space="preserve">
<style type="text/css">
	.st0{fill:#E1E4F6;}
	.st1{fill:none;stroke:#4400FF;stroke-width:0.75;stroke-miterlimit:10;}
	.st2{fill:#B756BC;}
	.st3{fill:none;stroke:#4400F9;stroke-width:0.75;stroke-miterlimit:10;}
	.st4{fill:#FFFFFF;}
	.st5{fill:#B556BA;}
</style>
<path class="st0" d="M53.5,9.6c1,1.7,1.6,3.8,1.6,5.9c0,6.5-5.3,11.8-11.8,11.8c-2.2,0-4.2-0.6-5.9-1.6c2,3.5,5.8,5.9,10.2,5.9
	c6.5,0,11.8-5.3,11.8-11.8C59.4,15.4,57,11.6,53.5,9.6"/>
<circle class="st1" cx="47.1" cy="19.2" r="12.4"/>
<path class="st2" d="M28.4,13.2c0.9,0.2,1.4,1.1,1.2,2c-0.2,0.9-1.1,1.4-2,1.2c-0.9-0.2-1.4-1.1-1.2-2
	C26.6,13.5,27.5,12.9,28.4,13.2"/>
<line class="st1" x1="30.3" y1="15.4" x2="34.7" y2="15.9"/>
<path class="st2" d="M43.8,1.2c0.2,0.9-0.3,1.8-1.2,2c-0.9,0.2-1.8-0.3-2-1.2c-0.2-0.9,0.3-1.8,1.2-2C42.6-0.2,43.5,0.3,43.8,1.2"/>
<line class="st1" x1="42.8" y1="4" x2="43.9" y2="6.8"/>
<path class="st2" d="M62.2,6.6c-0.6,0.6-1.7,0.6-2.3,0s-0.6-1.7,0-2.3s1.7-0.6,2.3,0C62.8,4.9,62.8,6,62.2,6.6"/>
<line class="st1" x1="60.4" y1="6.3" x2="56.3" y2="10.3"/>
<path class="st2" d="M66.8,26.7c-0.9-0.2-1.4-1.2-1.1-2c0.2-0.9,1.2-1.4,2-1.1c0.9,0.2,1.4,1.2,1.1,2C68.6,26.4,67.7,26.9,66.8,26.7
	"/>
<line class="st1" x1="64.9" y1="24.4" x2="59.4" y2="22.8"/>
<path class="st2" d="M51.2,39.9c-0.3-0.9,0.2-1.8,1.1-2.1c0.9-0.3,1.8,0.2,2.1,1.1c0.3,0.9-0.2,1.8-1.1,2.1
	C52.4,41.3,51.5,40.8,51.2,39.9"/>
<line class="st1" x1="52.1" y1="37.1" x2="50.6" y2="31.6"/>
<path class="st2" d="M30.8,32.5c0.7-0.6,1.7-0.6,2.3,0.1c0.6,0.7,0.6,1.7-0.1,2.3c-0.7,0.6-1.7,0.6-2.3-0.1
	C30.2,34.1,30.2,33.1,30.8,32.5"/>
<line class="st1" x1="33.8" y1="31.9" x2="37.9" y2="28"/>
<line class="st1" x1="48.4" y1="22.7" x2="51.7" y2="25.1"/>
<line class="st1" x1="51.6" y1="18.5" x2="53.8" y2="18.5"/>
<line class="st1" x1="45.2" y1="17.1" x2="46.6" y2="12.4"/>
<g>
	<circle class="st3" cx="31.4" cy="77.8" r="19.9"/>
	<circle class="st3" cx="31.4" cy="77.8" r="19.9"/>
	<circle class="st3" cx="31.4" cy="77.8" r="19.9"/>
	<g>
		<g>
			<g>
				<path class="st4" d="M30.6,62.7c-3.1-5.4-2.9-6.4-2.7-12.6l-5.4,1.3c3.1,5.4,2.9,6.4,2.7,12.6L30.6,62.7z"/>
			</g>
			<g>
				<path class="st3" d="M25.1,64c0.3-6.2,0.4-7.2-2.7-12.6"/>
				<path class="st3" d="M27.9,50.1c-0.3,6.2-0.4,7.2,2.7,12.6"/>
			</g>
			<circle class="st5" cx="24.7" cy="48.8" r="3.8"/>
		</g>
		<g>
			<g>
				<path class="st4" d="M32.2,92.9c3.1,5.4,2.3,3.4,2,9.6l5.4-1.3c-3.1-5.4-2.3-3.4-2-9.6L32.2,92.9z"/>
			</g>
			<g>
				<path class="st3" d="M37.7,91.6c-0.3,6.2-1.1,4.3,2,9.6"/>
				<path class="st3" d="M34.3,102.6c0.3-6.2,1.1-4.3-2-9.6"/>
			</g>
			<circle class="st5" cx="37.5" cy="103.8" r="3.8"/>
		</g>
	</g>
	<g>
		<g>
			<g>
				<path class="st4" d="M46.5,77c5.4-3.1,2.5-1.9,8.7-1.6l-1.3-5.4c-5.4,3.1-2.5,1.9-8.7,1.6L46.5,77z"/>
			</g>
			<g>
				<path class="st3" d="M45.2,71.6c6.2,0.3,3.3,1.5,8.7-1.6"/>
				<path class="st3" d="M55.2,75.4c-6.2-0.3-3.3-1.5-8.7,1.6"/>
			</g>
			<circle class="st5" cx="56.5" cy="72.2" r="3.8"/>
		</g>
		<g>
			<g>
				<path class="st4" d="M16.3,78.6c-5.4,3.1-5,2.5-11.2,2.2l1.3,5.4c5.4-3.1,5-2.5,11.2-2.2L16.3,78.6z"/>
			</g>
			<g>
				<path class="st3" d="M17.6,84.1c-6.2-0.3-5.8-0.9-11.2,2.2"/>
				<path class="st3" d="M5.1,80.9c6.2,0.3,5.8,0.9,11.2-2.2"/>
			</g>
			<circle class="st5" cx="3.8" cy="84.1" r="3.8"/>
		</g>
	</g>
	<g>
		<g>
			<g>
				<path class="st4" d="M42.7,87.9c6,1.6,7.6,2,11.8,6.6l2.9-4.8c-6-1.6-7.6-2-11.8-6.6L42.7,87.9z"/>
			</g>
			<g>
				<path class="st3" d="M45.6,83.1c4.2,4.6,5.8,5,11.8,6.6"/>
				<path class="st3" d="M54.5,94.5c-4.2-4.6-5.8-5-11.8-6.6"/>
			</g>
			<circle class="st5" cx="57.6" cy="93.1" r="3.8"/>
		</g>
		<g>
			<g>
				<path class="st4" d="M20.1,67.7c-6-1.6-8.2-2.5-12.4-7l-2.9,4.8c6,1.6,8.2,2.5,12.4,7L20.1,67.7z"/>
			</g>
			<g>
				<path class="st3" d="M17.2,72.5c-4.2-4.6-6.4-5.4-12.4-7"/>
				<path class="st3" d="M7.7,60.7c4.2,4.6,6.4,5.4,12.4,7"/>
			</g>
			<circle class="st5" cx="4.6" cy="62" r="3.8"/>
		</g>
	</g>
	<g>
		<g>
			<g>
				<path class="st4" d="M21.3,89.1c-1.6,6-2.6,7.6-7.2,11.8l4.8,2.9c1.6-6,2.6-7.6,7.2-11.8L21.3,89.1z"/>
			</g>
			<g>
				<path class="st3" d="M26.1,92c-4.6,4.2-5.6,5.8-7.2,11.8"/>
				<path class="st3" d="M14.1,100.9c4.6-4.2,5.6-5.8,7.2-11.8"/>
			</g>
			<circle class="st5" cx="15.5" cy="104.1" r="3.8"/>
		</g>
		<g>
			<g>
				<path class="st4" d="M41.5,66.6c1.6-6,3.2-8.3,7.8-12.4l-4.8-2.9c-1.6,6-3.2,8.3-7.8,12.4L41.5,66.6z"/>
			</g>
			<g>
				<path class="st3" d="M36.7,63.6c4.6-4.2,6.2-6.4,7.8-12.4"/>
				<path class="st3" d="M49.3,54.1c-4.6,4.2-6.2,6.4-7.8,12.4"/>
			</g>
			<circle class="st5" cx="47.9" cy="51" r="3.8"/>
		</g>
	</g>
</g>
<g>
	<g>
		<path class="st4" d="M34.1,76.2c-1.3-2.6-1-5,0.8-7.2L30,68.5c1.3,2.6,1,5-0.8,7.2L34.1,76.2z"/>
	</g>
	<g>
		<path class="st3" d="M29.2,75.7c1.8-2.3,2-4.7,0.8-7.2"/>
		<path class="st3" d="M34.9,69c-1.8,2.3-2,4.7-0.8,7.2"/>
	</g>
	<circle class="st5" cx="32.6" cy="67" r="3.4"/>
</g>
<g>
	<g>
		<path class="st4" d="M33.1,83.7c2.8,0.6,4.5,2.3,5.2,5.1l3.4-3.6c-2.8-0.6-4.5-2.3-5.2-5.1L33.1,83.7z"/>
	</g>
	<g>
		<path class="st3" d="M36.6,80.1c0.7,2.8,2.4,4.5,5.2,5.1"/>
		<path class="st3" d="M38.4,88.8c-0.7-2.8-2.4-4.5-5.2-5.1"/>
	</g>
	<circle class="st5" cx="41.3" cy="88.2" r="3.4"/>
</g>
<circle class="st5" cx="26" cy="83.7" r="3.8"/>
<g>
	<circle class="st3" cx="101.2" cy="41.1" r="14.3"/>
	<circle class="st3" cx="101.2" cy="41.1" r="14.3"/>
	<circle class="st3" cx="101.2" cy="41.1" r="14.3"/>
	<g>
		<g>
			<g>
				<path class="st4" d="M100.6,30.2c-2.2-3.9-2.1-4.6-1.9-9l-3.9,1c2.2,3.9,2.1,4.6,1.9,9L100.6,30.2z"/>
			</g>
			<g>
				<path class="st3" d="M96.7,31.2c0.2-4.4,0.3-5.2-1.9-9"/>
				<path class="st3" d="M98.7,21.2c-0.2,4.4-0.3,5.2,1.9,9"/>
			</g>
			<circle class="st5" cx="96.4" cy="20.3" r="2.7"/>
		</g>
		<g>
			<g>
				<path class="st4" d="M101.8,51.9c2.2,3.9,1.7,2.5,1.5,6.9l3.9-1c-2.2-3.9-1.7-2.5-1.5-6.9L101.8,51.9z"/>
			</g>
			<g>
				<path class="st3" d="M105.7,51c-0.2,4.4-0.8,3.1,1.5,6.9"/>
				<path class="st3" d="M103.3,58.8c0.2-4.4,0.8-3.1-1.5-6.9"/>
			</g>
			<circle class="st5" cx="105.5" cy="59.7" r="2.7"/>
		</g>
	</g>
	<g>
		<g>
			<g>
				<path class="st4" d="M112.1,40.5c3.9-2.2,1.8-1.4,6.2-1.2l-1-3.9c-3.9,2.2-1.8,1.4-6.2,1.2L112.1,40.5z"/>
			</g>
			<g>
				<path class="st3" d="M111.1,36.6c4.4,0.2,2.4,1,6.2-1.2"/>
				<path class="st3" d="M118.3,39.3c-4.4-0.2-2.4-1-6.2,1.2"/>
			</g>
			<circle class="st5" cx="119.2" cy="37" r="2.7"/>
		</g>
		<g>
			<g>
				<path class="st4" d="M90.4,41.6c-3.9,2.2-3.6,1.8-8,1.6l1,3.9c3.9-2.2,3.6-1.8,8-1.6L90.4,41.6z"/>
			</g>
			<g>
				<path class="st3" d="M91.3,45.6c-4.4-0.2-4.2-0.6-8,1.6"/>
				<path class="st3" d="M82.3,43.2c4.4,0.2,4.2,0.6,8-1.6"/>
			</g>
			<circle class="st5" cx="81.4" cy="45.5" r="2.7"/>
		</g>
	</g>
	<g>
		<g>
			<g>
				<path class="st4" d="M109.3,48.3c4.3,1.2,5.5,1.4,8.5,4.7l2.1-3.4c-4.3-1.2-5.5-1.4-8.5-4.7L109.3,48.3z"/>
			</g>
			<g>
				<path class="st3" d="M111.4,44.9c3,3.3,4.2,3.6,8.5,4.7"/>
				<path class="st3" d="M117.8,53c-3-3.3-4.2-3.6-8.5-4.7"/>
			</g>
			<circle class="st5" cx="120" cy="52.1" r="2.7"/>
		</g>
		<g>
			<g>
				<path class="st4" d="M93.1,33.8c-4.3-1.2-5.9-1.8-8.9-5.1l-2.1,3.4c4.3,1.2,5.9,1.8,8.9,5.1L93.1,33.8z"/>
			</g>
			<g>
				<path class="st3" d="M91,37.2c-3-3.3-4.6-3.9-8.9-5.1"/>
				<path class="st3" d="M84.2,28.8c3,3.3,4.6,3.9,8.9,5.1"/>
			</g>
			<circle class="st5" cx="82" cy="29.7" r="2.7"/>
		</g>
	</g>
	<g>
		<g>
			<g>
				<path class="st4" d="M94,49.1c-1.2,4.3-1.9,5.5-5.2,8.5l3.4,2.1c1.2-4.3,1.9-5.5,5.2-8.5L94,49.1z"/>
			</g>
			<g>
				<path class="st3" d="M97.4,51.2c-3.3,3-4,4.2-5.2,8.5"/>
				<path class="st3" d="M88.8,57.6c3.3-3,4-4.2,5.2-8.5"/>
			</g>
			<circle class="st5" cx="89.8" cy="59.9" r="2.7"/>
		</g>
		<g>
			<g>
				<path class="st4" d="M108.5,33c1.2-4.3,2.3-5.9,5.6-8.9l-3.4-2.1c-1.2,4.3-2.3,5.9-5.6,8.9L108.5,33z"/>
			</g>
			<g>
				<path class="st3" d="M105,30.9c3.3-3,4.4-4.6,5.6-8.9"/>
				<path class="st3" d="M114,24.1c-3.3,3-4.4,4.6-5.6,8.9"/>
			</g>
			<circle class="st5" cx="113" cy="21.8" r="2.7"/>
		</g>
	</g>
</g>
<g>
	<g>
		<path class="st4" d="M103.2,39.9c-0.9-1.9-0.7-3.6,0.6-5.2l-3.5-0.4c0.9,1.9,0.7,3.6-0.6,5.2L103.2,39.9z"/>
	</g>
	<g>
		<path class="st3" d="M99.6,39.5c1.3-1.6,1.5-3.3,0.6-5.2"/>
		<path class="st3" d="M103.7,34.7c-1.3,1.6-1.5,3.3-0.6,5.2"/>
	</g>
	<circle class="st5" cx="102.1" cy="33.3" r="2.4"/>
</g>
<g>
	<g>
		<path class="st4" d="M102.4,45.3c2,0.4,3.3,1.6,3.8,3.6l2.5-2.6c-2-0.4-3.3-1.6-3.8-3.6L102.4,45.3z"/>
	</g>
	<g>
		<path class="st3" d="M104.9,42.7c0.5,2,1.7,3.2,3.8,3.6"/>
		<path class="st3" d="M106.2,48.9c-0.5-2-1.7-3.2-3.8-3.6"/>
	</g>
	<circle class="st5" cx="108.3" cy="48.5" r="2.4"/>
</g>
<circle class="st5" cx="97.3" cy="45.3" r="2.7"/>
<path class="st4" d="M97.2,75.7c0,2.9-2.4,5.3-5.3,5.2c-2.8,0-5.1-2.4-5.2-5.2c0-2.9,2.3-5.3,5.2-5.3C94.9,70.5,97.2,72.8,97.2,75.7
	"/>
<path class="st1" d="M97.1,74.7c0.7,3.7-2.5,6.9-6.2,6.2c-2.1-0.4-3.7-2.1-4.1-4.1c-0.7-3.7,2.5-6.9,6.2-6.2
	C95.1,71,96.7,72.6,97.1,74.7z"/>
<path class="st4" d="M77.4,78.7c0.6-2.9,3.4-4.8,6.4-4.2c2.8,0.6,4.7,3.4,4.2,6.2c-0.5,2.9-3.4,4.9-6.3,4.3
	C78.7,84.4,76.8,81.6,77.4,78.7"/>
<path class="st1" d="M77.3,79.7c0-3.8,3.8-6.4,7.4-5c2,0.8,3.3,2.8,3.3,4.9c0,3.8-3.8,6.4-7.4,5C78.6,83.9,77.2,81.9,77.3,79.7z"/>
<path class="st4" d="M81.9,93.4c0.7-3.7,4.4-6.1,8.1-5.3c3.4,0.8,5.7,4.2,5.2,7.7c-0.6,3.8-4.3,6.2-8,5.5
	C83.5,100.7,81.2,97.1,81.9,93.4"/>
<path class="st1" d="M81.8,94.6c0.2-4.7,4.8-7.8,9.2-6.1c2.7,1,4.4,3.6,4.3,6.5c-0.2,4.7-4.8,7.8-9.2,6.1
	C83.4,100.1,81.7,97.4,81.8,94.6z"/>
<path class="st4" d="M77.6,87.9c0.7-3.7,4.4-6.1,8.1-5.3c3.4,0.8,5.7,4.2,5.2,7.7c-0.6,3.8-4.3,6.2-8,5.5
	C79.3,95.1,76.9,91.6,77.6,87.9"/>
<path class="st1" d="M77.5,89.1c0.2-4.7,4.8-7.8,9.2-6.1c2.7,1,4.4,3.6,4.3,6.5c-0.1,4.7-4.8,7.8-9.2,6.1
	C79.2,94.6,77.4,91.9,77.5,89.1z"/>
<path class="st4" d="M83.1,79.9c0.7-3.7,4.4-6.1,8.1-5.3c3.4,0.8,5.7,4.2,5.2,7.7c-0.6,3.8-4.3,6.2-8,5.5
	C84.7,87.1,82.4,83.5,83.1,79.9"/>
<path class="st1" d="M83,81c0.2-4.7,4.8-7.8,9.2-6.1c2.7,1,4.4,3.6,4.3,6.5c-0.2,4.7-4.8,7.8-9.2,6.1C84.6,86.5,82.9,83.9,83,81z"/>
<path class="st4" d="M90.9,81.2c0.7-3.7,4.4-6.1,8.1-5.3c3.4,0.8,5.7,4.2,5.2,7.7c-0.6,3.8-4.3,6.2-8,5.5
	C92.6,88.4,90.2,84.8,90.9,81.2"/>
<path class="st1" d="M90.8,82.3c0.2-4.7,4.8-7.8,9.2-6.1c2.7,1,4.4,3.6,4.3,6.5c-0.2,4.7-4.8,7.8-9.2,6.1
	C92.5,87.8,90.7,85.1,90.8,82.3z"/>
<path class="st4" d="M89.8,90.6c0.7-3.7,4.4-6.1,8.1-5.3c3.4,0.8,5.7,4.2,5.2,7.7c-0.6,3.8-4.3,6.2-8,5.5
	C91.5,97.8,89.1,94.3,89.8,90.6"/>
<path class="st1" d="M91.4,87.4c1-1.2,2.5-2,4.2-2.2c5-0.5,8.1,3.6,7.5,8c-0.4,3.3-4.2,5.9-7.9,5.3C90.3,97.8,87.8,91.7,91.4,87.4z"
	/>
<path class="st4" d="M86.1,85.7c0.7-3.7,4.4-6.1,8.1-5.3c3.4,0.8,5.7,4.2,5.2,7.7c-0.6,3.8-4.3,6.2-8,5.5
	C87.7,92.9,85.4,89.3,86.1,85.7"/>
<path class="st1" d="M86,86.8c0.2-4.7,4.8-7.8,9.2-6.1c2.7,1,4.4,3.6,4.3,6.5c-0.2,4.7-4.8,7.8-9.2,6.1C87.6,92.3,85.9,89.6,86,86.8
	z"/>
</svg>
