<?xml version="1.0" standalone="no"?>
<!DOCTYPE svg PUBLIC "-//W3C//DTD SVG 20010904//EN"
 "http://www.w3.org/TR/2001/REC-SVG-20010904/DTD/svg10.dtd">
<svg version="1.0" xmlns="http://www.w3.org/2000/svg"
 width="150.000000pt" height="150.000000pt" viewBox="0 0 150.000000 150.000000"
 preserveAspectRatio="xMidYMid meet">
<metadata>
Created by potrace 1.16, written by Peter Selinger 2001-2019
</metadata>
<g transform="translate(0.000000,150.000000) scale(0.117187,-0.117187)"
fill="#ffffff" stroke="none">
<path d="M246 1224 c-13 -12 -16 -41 -16 -145 l0 -129 -75 0 c-81 0 -127 -16
-145 -49 -6 -12 -10 -118 -10 -271 0 -277 2 -288 62 -309 17 -6 62 -11 99 -11
l69 0 0 -119 c0 -95 3 -123 16 -135 13 -14 63 -16 394 -16 331 0 381 2 394 16
13 12 16 40 16 135 l0 119 69 0 c37 0 82 5 99 11 60 21 62 32 62 309 0 153 -4
259 -10 271 -18 33 -64 49 -145 49 l-75 0 0 129 c0 104 -3 133 -16 145 -13 14
-63 16 -394 16 -331 0 -381 -2 -394 -16z m704 -179 l0 -95 -310 0 -310 0 0 95
0 95 310 0 310 0 0 -95z m0 -740 l0 -165 -310 0 -310 0 0 165 0 165 310 0 310
0 0 -165z"/>
<path d="M422 408 c-14 -14 -15 -47 -2 -68 8 -13 44 -15 220 -15 176 0 212 2
220 15 13 21 12 54 -2 68 -17 17 -419 17 -436 0z"/>
<path d="M438 283 c-22 -5 -35 -50 -21 -72 9 -14 39 -16 223 -16 184 0 214 2
223 16 15 24 1 66 -25 73 -26 7 -374 6 -400 -1z"/>
</g>
</svg>
