<svg xmlns="http://www.w3.org/2000/svg" viewBox="0 0 25 25">
  <defs>
    <style>
      .cls-1 {
        fill: #000000;
        fill-rule: evenodd;
      }
    </style>
  </defs>
  <path id="search.svg" class="cls-1" d="M471.313,851l-5.736-5.736a11.025,11.025,0,0,1-3.314,3.314L468,854.313A2.343,2.343,0,0,0,471.313,851Zm-5.563-11.624a9.375,9.375,0,1,0-9.375,9.375A9.376,9.376,0,0,0,465.75,839.375Zm-9.375,7.031a7.031,7.031,0,1,1,7.031-7.031A7.039,7.039,0,0,1,456.375,846.406Zm-5.469-7.031h1.563a3.91,3.91,0,0,1,3.906-3.906v-1.563A5.476,5.476,0,0,0,450.906,839.375Z" transform="translate(-447 -830)"/>
</svg>