<?xml version="1.0" standalone="no"?>
<!DOCTYPE svg PUBLIC "-//W3C//DTD SVG 20010904//EN"
 "http://www.w3.org/TR/2001/REC-SVG-20010904/DTD/svg10.dtd">
<svg version="1.0" xmlns="http://www.w3.org/2000/svg"
 width="64.000000pt" height="64.000000pt" viewBox="0 0 64.000000 64.000000"
 preserveAspectRatio="xMidYMid meet">

<g transform="translate(0.000000,64.000000) scale(0.100000,-0.100000)"
fill="#ffffff" stroke="none">
<path d="M281 495 c-139 -40 -260 -80 -268 -88 -14 -13 -14 -24 -5 -73 8 -37
19 -62 32 -71 16 -12 18 -18 10 -28 -7 -8 -9 -18 -6 -24 3 -5 -1 -11 -9 -15
-10 -4 -15 -20 -15 -50 0 -60 23 -76 107 -76 34 0 65 5 68 10 4 6 -19 10 -62
10 -37 0 -74 4 -81 9 -18 11 -21 72 -4 78 6 3 12 -3 12 -11 0 -9 10 -21 23
-27 19 -9 63 1 237 51 118 34 221 65 228 68 11 4 13 0 8 -16 -5 -16 0 -29 18
-47 32 -32 35 -80 7 -95 -11 -6 -90 -10 -185 -10 -104 0 -166 -4 -166 -10 0
-15 329 -13 360 3 20 10 26 21 28 59 3 39 0 47 -17 53 -36 11 -37 59 -2 70 10
3 24 16 31 30 18 34 -2 105 -29 105 -28 0 -45 25 -32 48 6 11 16 22 22 24 16
5 -14 74 -38 86 -14 8 -79 -7 -272 -63z m273 39 c20 -20 20 -35 -1 -72 -16
-28 -16 -31 0 -56 10 -14 26 -26 37 -26 14 0 21 -9 26 -36 3 -19 3 -39 -2 -43
-13 -12 -155 -53 -162 -47 -3 3 -11 1 -18 -5 -17 -14 -34 -3 -34 22 0 24 -21
33 -56 25 -22 -6 -25 -11 -19 -34 4 -15 7 -31 8 -36 2 -9 -202 -76 -231 -76
-7 0 -19 15 -27 33 -11 27 -11 34 1 48 25 28 17 68 -16 87 -35 20 -49 57 -29
77 14 14 285 95 323 98 12 0 23 4 26 7 4 5 130 46 152 49 4 1 14 -6 22 -15z
m-484 -256 c0 -5 -9 -4 -20 2 -11 6 -18 15 -14 21 6 11 34 -7 34 -23z m310 -7
c0 -5 3 -16 6 -24 3 -8 -2 -17 -11 -21 -11 -4 -19 2 -24 17 -5 12 -7 25 -4 30
6 10 33 9 33 -2z"/>
<path d="M455 505 c-33 -10 -40 -16 -37 -36 4 -33 7 -34 60 -18 39 13 47 19
47 39 0 29 -15 33 -70 15z m55 -14 c0 -13 -60 -32 -73 -24 -6 4 5 12 24 19 43
16 49 16 49 5z"/>
<path d="M380 441 c0 -12 5 -21 10 -21 6 0 10 6 10 14 0 8 -4 18 -10 21 -5 3
-10 -3 -10 -14z"/>
<path d="M176 411 c-3 -4 1 -17 9 -27 8 -10 15 -24 15 -29 0 -15 -56 -34 -80
-28 -23 6 -26 -13 -6 -39 11 -14 19 -16 47 -8 51 15 59 13 59 -18 0 -35 6 -41
30 -35 13 3 22 18 26 39 4 25 15 39 35 50 50 25 30 72 -25 58 -15 -3 -29 3
-46 20 -23 26 -54 34 -64 17z m74 -47 c0 -13 -31 0 -40 17 -11 20 -11 20 14 4
14 -10 26 -19 26 -21z m68 -16 c-3 -7 -46 -22 -97 -34 -108 -25 -109 -19 -3
18 88 30 105 33 100 16z m-58 -67 c0 -11 -4 -23 -10 -26 -6 -4 -10 5 -10 19 0
14 5 26 10 26 6 0 10 -9 10 -19z"/>
<path d="M400 376 c0 -8 5 -18 10 -21 6 -3 10 1 10 9 0 8 -4 18 -10 21 -5 3
-10 -1 -10 -9z"/>
<path d="M531 349 c-13 -5 -21 -12 -18 -15 9 -9 57 5 57 16 0 12 -7 12 -39 -1z"/>
<path d="M420 313 c0 -13 5 -23 10 -23 13 0 13 11 0 30 -8 12 -10 11 -10 -7z"/>
<path d="M548 318 c-33 -12 -38 -32 -5 -22 34 10 50 21 41 26 -5 3 -21 1 -36
-4z"/>
<path d="M143 217 c-37 -14 -52 -27 -31 -27 24 0 78 21 78 31 0 11 -7 11 -47
-4z"/>
<path d="M434 155 c-14 -35 3 -46 63 -43 55 3 58 4 61 31 3 27 3 27 -58 27
-45 0 -62 -4 -66 -15z m106 -15 c0 -5 -18 -10 -39 -10 -22 0 -43 5 -46 10 -4
6 12 10 39 10 25 0 46 -4 46 -10z"/>
<path d="M290 140 c0 -5 24 -10 54 -10 30 0 58 5 61 10 4 6 -17 10 -54 10 -34
0 -61 -4 -61 -10z"/>
</g>
</svg>
